# xmcd
#
# Track frame offsets: 
#        150
#        19641
#        43912
#        66517
#        83826
#        108697
#        137190
#
# Disc length: 2259 seconds
#
# Revision: 0
# Processed by: cddbd v1.5.2PL0 Copyright (c) Steve Scherf et al.
# Submitted via: ExactAudioCopy v1.0b4
#
DISCID=6308d107
DTITLE=Billy Paul - When Love Is New
DYEAR=1975
DGENRE=Soul
TTITLE0=People Power
TTITLE1=America (We Need the Light)
TTITLE2=Let the Dollar Circulate
TTITLE3=Malorie
TTITLE4=When Love Is New
TTITLE5=I Want Cha' Baby
TTITLE6=Let's Make a Baby
EXTD=
EXTT0=
EXTT1=
EXTT2=
EXTT3=
EXTT4=
EXTT5=
EXTT6=
PLAYORDER=
